<svg xmlns="http://www.w3.org/2000/svg" xmlns:xlink="http://www.w3.org/1999/xlink" width="201.9449" height="201.9449">
  <defs>
    <linearGradient id="b">
      <stop offset="0" stop-color="#008fff" stop-opacity=".98974359"/>
      <stop offset="1" stop-color="#005fff" stop-opacity=".99249274"/>
    </linearGradient>
    <linearGradient id="a">
      <stop offset="0" stop-color="#008fff" stop-opacity=".98974359"/>
      <stop offset="1" stop-color="#005fff" stop-opacity=".99249274"/>
    </linearGradient>
    <linearGradient id="d" x1="-181.57063" x2="-113.25694" y1="34.009682" y2="106.8177" gradientUnits="userSpaceOnUse" xlink:href="#a"/>
    <linearGradient id="c" x1="-181.57063" x2="-113.25694" y1="34.009682" y2="106.8177" gradientUnits="userSpaceOnUse" xlink:href="#b"/>
  </defs>
  <path fill="url(#c)" d="M-12.374931 100.92229A100.97245 100.97245 0 0 1-113.34738 201.89474a100.97245 100.97245 0 0 1-100.97245-100.97245A100.97245 100.97245 0 0 1-113.34738-.05016327 100.97245 100.97245 0 0 1-12.374931 100.92229z" transform="translate(214.31983 .05016327)"/>
  <path fill="#fff" d="M186.364576 100.97245327a85.392128 85.392128 0 0 1-85.392126 85.39212 85.392128 85.392128 0 0 1-85.39213-85.39212 85.392128 85.392128 0 0 1 85.39213-85.392131 85.392128 85.392128 0 0 1 85.392126 85.392131z"/>
  <path fill="url(#d)" d="M-50.405575 100.92229a62.941807 62.941807 0 0 1-62.941805 62.9418 62.941807 62.941807 0 0 1-62.94181-62.9418 62.941807 62.941807 0 0 1 62.94181-62.94181 62.941807 62.941807 0 0 1 62.941805 62.94181z" transform="translate(214.31983 .05016327)"/>
  <path fill="#fff" d="M138.487984 77.47487427c-.0472.0846-.0801.16286-.12891.24805-6.21714 10.86128-17.82812 17.97851-17.82812 17.97851s-.0136.004-.0137.004a20.524069 20.524069 0 0 1 .76367 5.537109 20.524069 20.524069 0 0 1-20.523454 20.52344 20.524069 20.524069 0 0 1-20.52343-20.52344 20.524069 20.524069 0 0 1 .39843-3.999999c-.0328-.0152-.069-.0276-.10156-.043-12.05977-5.69281-19.09961-16.33008-19.09961-16.33008l-.16406-.39844a44.6436 44.6436 0 0 0-5.1543 20.771489 44.6436 44.6436 0 0 0 44.64453 44.64453 44.6436 44.6436 0 0 0 44.644544-44.64453 44.6436 44.6436 0 0 0-6.91406-23.767579z"/>
</svg>
